<?xml version="1.0" encoding="utf-8"?>
<!-- Generator: Adobe Illustrator 27.6.1, SVG Export Plug-In . SVG Version: 6.00 Build 0)  -->
<svg version="1.1" id="Ebene_1" xmlns="http://www.w3.org/2000/svg" xmlns:xlink="http://www.w3.org/1999/xlink" x="0px" y="0px"
	 viewBox="0 0 177 60" style="enable-background:new 0 0 177 60;" xml:space="preserve">
<style type="text/css">
	.st0{fill:#797879;}
	.st1{fill:#E7471B;}
	.st2{fill:#83B72A;}
	.st3{fill:#37A0DA;}
	.st4{fill:#F9B80D;}
</style>
<g>
	<polyline class="st0" points="71.6,13.8 71.6,30.5 68.7,30.5 68.7,17.3 68.6,17.3 63.4,30.5 61.4,30.5 56.1,17.3 56.1,17.3 
		56.1,30.5 53.3,30.5 53.3,13.8 57.5,13.8 62.4,26.2 62.4,26.2 67.6,13.8 71.6,13.8 	"/>
	<path class="st0" d="M77.2,30.5h-2.9v-12h2.9V30.5 M74.1,15c0-0.4,0.2-0.9,0.5-1.2c0.3-0.3,0.7-0.5,1.2-0.5s0.9,0.2,1.2,0.5
		c0.3,0.3,0.5,0.7,0.5,1.2s-0.2,0.8-0.5,1.2c-0.3,0.3-0.7,0.5-1.2,0.5s-0.9-0.2-1.2-0.5C74.3,15.8,74.1,15.4,74.1,15"/>
	<path class="st0" d="M85.9,28.4c0.5,0,1-0.1,1.4-0.3c0.5-0.2,1-0.4,1.4-0.7V30c-0.5,0.2-1,0.5-1.6,0.6c-0.7,0.2-1.2,0.2-1.9,0.2
		c-1.7,0.1-3.2-0.6-4.4-1.7c-1.2-1.2-1.7-2.6-1.7-4.3C79.1,23,79.8,21.3,81,20c1.2-1.2,2.7-1.9,4.9-1.9c0.6,0,1.1,0.1,1.7,0.2
		c0.4,0.1,0.9,0.2,1.3,0.5v2.7c-0.4-0.3-0.9-0.6-1.3-0.7s-0.9-0.2-1.4-0.2c-1-0.1-2,0.3-2.7,1.1c-0.7,0.8-1.1,1.8-1.1,2.9
		c-0.1,1.1,0.3,2.1,1,2.8C83.9,28.1,84.8,28.5,85.9,28.4"/>
	<path class="st0" d="M96.8,18.3c0.2,0,0.4,0,0.6,0.1c0.2,0,0.3,0.1,0.5,0.1v2.9c-0.2-0.2-0.4-0.2-0.7-0.3c-0.3-0.1-0.7-0.2-1.1-0.2
		c-0.7,0-1.3,0.3-1.7,0.9c-0.6,0.8-0.8,1.7-0.7,2.7v6h-2.9V18.5h2.9v1.9h0.1c0.2-0.6,0.7-1.2,1.2-1.6C95.5,18.5,96.2,18.2,96.8,18.3
		"/>
	<path class="st0" d="M101.1,24.5c-0.1,1,0.2,2.1,0.8,2.9c0.7,0.7,1.6,1.1,2.5,1c0.9,0.1,1.8-0.3,2.4-1c0.6-0.8,0.9-1.9,0.8-3
		c0.1-1.1-0.2-2.1-0.8-2.9c-0.6-0.7-1.5-1.1-2.4-1c-0.9-0.1-1.8,0.3-2.4,1C101.3,22.4,101,23.5,101.1,24.5 M98.1,24.7
		c-0.1-1.7,0.5-3.5,1.7-4.7c1.2-1.2,3-1.8,4.7-1.7c1.7-0.1,3.3,0.5,4.5,1.7c1.1,1.2,1.7,2.9,1.6,4.5c0.1,1.7-0.5,3.4-1.7,4.6
		c-1.2,1.2-2.9,1.8-4.6,1.7c-1.7,0.1-3.3-0.5-4.5-1.7C98.6,27.9,98,26.3,98.1,24.7"/>
	<path class="st0" d="M114.8,21.6c0,0.3,0.2,0.7,0.4,0.9c0.5,0.3,1.1,0.7,1.7,0.9c0.9,0.3,1.7,0.8,2.4,1.5c0.5,0.6,0.7,1.3,0.7,2.1
		c0,1.1-0.5,2.1-1.3,2.7c-1.1,0.7-2.3,1.1-3.6,1c-0.6,0-1.2-0.1-1.7-0.2c-0.5-0.1-1.1-0.2-1.6-0.5v-2.8c0.5,0.3,1.1,0.7,1.7,0.8
		c0.5,0.2,1.1,0.3,1.7,0.3c0.5,0,1-0.1,1.4-0.2c0.3-0.2,0.5-0.5,0.5-0.9s-0.2-0.7-0.5-1c-0.6-0.4-1.2-0.7-1.8-0.9
		c-0.8-0.3-1.7-0.8-2.2-1.5c-0.5-0.6-0.7-1.3-0.7-2.1c0-1.1,0.5-2.1,1.3-2.6c1-0.7,2.2-1.1,3.4-1.1c0.5,0,1,0.1,1.4,0.2
		s0.9,0.2,1.3,0.3v2.6c-0.4-0.2-0.8-0.5-1.3-0.7s-1-0.2-1.5-0.2c-0.4,0-0.9,0.1-1.2,0.3C115,20.9,114.8,21.3,114.8,21.6"/>
	<g>
		<path class="st0" d="M124.3,24.5c-0.1,1,0.2,2.1,0.8,2.9c0.7,0.7,1.6,1.1,2.5,1c0.9,0.1,1.8-0.3,2.4-1c0.6-0.8,0.9-1.9,0.8-3
			c0.1-1.1-0.2-2.1-0.8-2.9c-0.6-0.7-1.5-1.1-2.4-1c-0.9-0.1-1.8,0.3-2.4,1C124.5,22.4,124.2,23.5,124.3,24.5 M121.3,24.7
			c-0.1-1.7,0.5-3.5,1.7-4.7c1.2-1.2,3-1.8,4.7-1.7c1.7-0.1,3.3,0.5,4.5,1.7c1.1,1.2,1.7,2.9,1.6,4.5c0.1,1.7-0.5,3.4-1.7,4.6
			c-1.2,1.2-2.9,1.8-4.6,1.7c-1.7,0.1-3.3-0.5-4.5-1.7C121.8,27.9,121.2,26.3,121.3,24.7"/>
		<path class="st0" d="M140.5,12.5c0.3,0,0.6,0,0.9,0.1c0.2,0,0.5,0.1,0.7,0.2v2.4c-0.2-0.1-0.3-0.2-0.5-0.2
			c-0.2-0.1-0.6-0.1-0.8-0.1c-0.5,0-1,0.2-1.4,0.6c-0.3,0.5-0.5,1.1-0.5,1.7v1.4h2.7v2.3h-2.7v9.7H136v-9.8H134v-2.3h2.1v-1.7
			c0-1.2,0.4-2.3,1.2-3.1C138.1,12.8,139.3,12.4,140.5,12.5"/>
	</g>
	<path class="st0" d="M147.8,28.4c0.2,0,0.4-0.1,0.6-0.1c0.2-0.1,0.4-0.2,0.6-0.2v2.3c-0.2,0.2-0.6,0.2-0.9,0.2
		c-0.4,0.1-0.8,0.2-1.2,0.2c-1,0.1-2-0.2-2.7-0.9c-0.7-0.8-1-1.8-0.9-2.9v-6.1h-2v-2.3h2v-2.7l2.9-0.8v3.6h2.9v2.3h-2.9v5.6
		c-0.1,0.6,0.1,1.1,0.4,1.6C146.8,28.3,147.3,28.5,147.8,28.4"/>
	<g>
		<path class="st0" d="M52.8,46.8V45c0.2,0.2,0.4,0.2,0.6,0.4c0.2,0.1,0.5,0.2,0.7,0.3c0.2,0.1,0.5,0.2,0.7,0.2
			c0.2,0.1,0.5,0.1,0.7,0.1c0.6,0,1.2-0.1,1.7-0.3c0.3-0.2,0.6-0.7,0.6-1.1c0-0.2-0.1-0.5-0.2-0.7c-0.2-0.2-0.3-0.3-0.5-0.5
			c-0.2-0.2-0.5-0.3-0.7-0.4c-0.3-0.2-0.6-0.2-0.9-0.4s-0.7-0.4-1-0.6c-0.3-0.2-0.6-0.4-0.8-0.7c-0.2-0.2-0.4-0.5-0.6-0.8
			s-0.2-0.7-0.2-1.1s0.1-0.9,0.3-1.3c0.2-0.3,0.5-0.7,0.9-0.9s0.8-0.4,1.2-0.5c0.5-0.1,1-0.2,1.4-0.2c0.8-0.1,1.7,0.1,2.4,0.4v1.7
			c-0.7-0.5-1.5-0.7-2.3-0.7c-0.2,0-0.5,0-0.7,0.1c-0.2,0.1-0.5,0.2-0.7,0.2c-0.2,0.1-0.3,0.2-0.5,0.4c-0.2,0.2-0.2,0.4-0.2,0.7
			s0.1,0.4,0.2,0.6c0.1,0.2,0.2,0.3,0.4,0.5c0.2,0.2,0.4,0.3,0.7,0.4c0.2,0.2,0.6,0.2,1,0.4c0.3,0.2,0.7,0.4,1.1,0.6
			c0.3,0.2,0.6,0.4,0.8,0.7s0.4,0.5,0.6,0.8c0.2,0.3,0.2,0.7,0.2,1.1c0.1,0.9-0.4,1.7-1.2,2.2c-0.4,0.2-0.8,0.4-1.2,0.5
			c-0.5,0.1-1,0.2-1.5,0.2c-0.2,0-0.4,0-0.7,0s-0.5-0.1-0.8-0.1c-0.2-0.1-0.5-0.1-0.7-0.2C53.2,47,53,46.9,52.8,46.8"/>
		<path class="st0" d="M64.6,41c-0.6,0-1.2,0.2-1.6,0.7c-0.4,0.6-0.7,1.2-0.6,1.9c0,0.7,0.2,1.3,0.6,1.8c0.4,0.4,1,0.7,1.6,0.7
			s1.2-0.2,1.6-0.7c0.4-0.6,0.6-1.2,0.6-1.9c0.1-0.7-0.2-1.3-0.6-1.9C65.7,41.1,65.2,40.9,64.6,41 M64.5,47.4
			c-2,0.2-3.7-1.4-3.9-3.4c0-0.2,0-0.3,0-0.5c-0.1-1.1,0.3-2.2,1.1-3c0.8-0.7,1.9-1.2,3-1.1c1-0.1,2.1,0.3,2.8,1
			c0.7,0.7,1.1,1.8,1,2.9c0.2,2.1-1.4,3.8-3.5,4C64.8,47.4,64.7,47.4,64.5,47.4"/>
		<polyline class="st0" points="70.2,36.2 71.9,36.2 71.9,47.3 70.2,47.3 70.2,36.2 		"/>
		<path class="st0" d="M80.8,47.3h-1.7v-1.2l0,0c-0.4,0.9-1.3,1.4-2.3,1.3c-1.8,0-2.7-1.1-2.7-3.2v-4.5h1.7V44c0,1.3,0.5,2,1.6,2
			c0.5,0,0.9-0.2,1.2-0.6s0.5-0.9,0.5-1.5v-4.3h1.7L80.8,47.3"/>
		<path class="st0" d="M87.1,47.2c-0.4,0.2-0.9,0.2-1.3,0.2c-1.5,0-2.2-0.7-2.2-2.1v-4.2h-1.2v-1.3h1.2v-1.7l1.7-0.5v2.2h1.8v1.3
			h-1.8v3.7c0,0.3,0.1,0.7,0.2,1c0.2,0.2,0.5,0.3,0.8,0.2c0.2,0,0.6-0.1,0.7-0.2L87.1,47.2"/>
		<path class="st0" d="M90.3,47.3h-1.7v-7.5h1.7V47.3 M89.4,38.2c-0.2,0-0.5-0.1-0.7-0.2c-0.2-0.2-0.3-0.4-0.3-0.7s0.1-0.5,0.3-0.7
			c0.2-0.2,0.5-0.2,0.7-0.2c0.2,0,0.6,0.1,0.7,0.2c0.2,0.2,0.3,0.4,0.3,0.7s-0.1,0.5-0.3,0.7C90,38.1,89.7,38.2,89.4,38.2"/>
		<path class="st0" d="M96,41c-0.6,0-1.2,0.2-1.6,0.7c-0.4,0.6-0.7,1.2-0.6,1.9c0,0.7,0.2,1.3,0.6,1.8c0.4,0.4,1,0.7,1.6,0.7
			s1.2-0.2,1.6-0.7c0.4-0.6,0.6-1.2,0.6-1.9c0.1-0.7-0.2-1.3-0.6-1.9C97.2,41.1,96.6,40.9,96,41 M95.9,47.4c-2,0.2-3.7-1.4-3.9-3.4
			c0-0.2,0-0.3,0-0.5c-0.1-1.1,0.3-2.2,1.1-3c0.8-0.7,1.9-1.2,3-1.1c1-0.1,2.1,0.3,2.8,1c0.7,0.7,1.1,1.8,1,2.9
			c0.2,2.1-1.4,3.8-3.5,4C96.3,47.4,96.1,47.4,95.9,47.4"/>
		<path class="st0" d="M108.3,47.3h-1.7V43c0-1.4-0.5-2.1-1.5-2.1c-0.5,0-1,0.2-1.3,0.6s-0.5,0.9-0.5,1.5v4.3h-1.7v-7.5h1.7V41l0,0
			c0.5-0.9,1.4-1.5,2.5-1.4c0.7-0.1,1.4,0.2,1.9,0.8c0.5,0.7,0.7,1.5,0.7,2.3L108.3,47.3"/>
		<path class="st0" d="M110,47v-1.6c0.6,0.5,1.3,0.7,2.2,0.7c1.1,0,1.6-0.3,1.6-0.9c0-0.2-0.1-0.3-0.2-0.4c-0.1-0.2-0.2-0.2-0.3-0.3
			c-0.2-0.1-0.3-0.2-0.5-0.2c-0.2-0.1-0.4-0.2-0.7-0.2c-0.2-0.1-0.6-0.2-0.8-0.4c-0.2-0.1-0.4-0.2-0.7-0.5c-0.2-0.2-0.3-0.3-0.4-0.6
			c-0.1-0.2-0.2-0.5-0.2-0.7c0-0.3,0.1-0.7,0.2-1c0.2-0.2,0.4-0.5,0.7-0.7c0.3-0.2,0.7-0.3,1-0.4c0.4-0.1,0.7-0.2,1.2-0.2
			c0.7,0,1.2,0.1,1.9,0.3v1.5c-0.6-0.3-1.2-0.6-1.8-0.6c-0.2,0-0.4,0-0.6,0.1c-0.2,0-0.3,0.1-0.4,0.2c-0.1,0.1-0.2,0.2-0.2,0.2
			c-0.1,0.1-0.1,0.2-0.1,0.3c0,0.2,0,0.2,0.1,0.4c0.1,0.1,0.2,0.2,0.3,0.3s0.3,0.2,0.5,0.2s0.4,0.2,0.7,0.2c0.3,0.1,0.6,0.2,0.9,0.4
			c0.2,0.1,0.5,0.2,0.7,0.5c0.2,0.2,0.3,0.4,0.4,0.6c0.1,0.2,0.2,0.5,0.2,0.8c0,0.3-0.1,0.7-0.2,1c-0.2,0.2-0.4,0.5-0.7,0.7
			c-0.3,0.2-0.7,0.3-1,0.4c-0.4,0.1-0.8,0.2-1.2,0.2C111.4,47.4,110.7,47.3,110,47"/>
		<path class="st0" d="M123.1,38.2V42h1.2c0.7,0.1,1.2-0.2,1.7-0.5c0.4-0.4,0.7-0.9,0.6-1.5c0-1.2-0.7-1.8-2.2-1.8H123.1
			 M123.1,43.4v3.8h-1.7V36.7h3.2c1-0.1,2,0.2,2.8,0.8c0.7,0.6,1.1,1.5,1,2.4c0,0.9-0.3,1.9-1.1,2.5c-0.8,0.7-1.8,1-2.8,1
			L123.1,43.4"/>
		<path class="st0" d="M133.8,43.5l-1.6,0.2c-0.4,0-0.7,0.2-1.2,0.3c-0.2,0.2-0.4,0.6-0.4,0.9c0,0.3,0.1,0.6,0.3,0.7
			c0.2,0.2,0.6,0.3,0.9,0.3c0.5,0,1-0.2,1.3-0.6c0.3-0.3,0.5-0.8,0.5-1.4L133.8,43.5 M135.5,47.3h-1.7v-1.2l0,0
			c-0.4,0.8-1.3,1.4-2.3,1.3c-0.7,0-1.2-0.2-1.7-0.6c-0.4-0.4-0.7-1-0.7-1.6c0-1.4,0.8-2.2,2.5-2.5l2.2-0.3c0-1.1-0.5-1.6-1.6-1.6
			c-0.9,0-1.7,0.3-2.5,0.9v-1.5c0.8-0.5,1.8-0.7,2.8-0.7c1.9,0,2.9,0.9,2.9,2.8L135.5,47.3"/>
		<path class="st0" d="M142,41.4c-0.2-0.2-0.6-0.2-0.9-0.2c-0.5,0-1,0.2-1.2,0.7c-0.3,0.6-0.6,1.2-0.5,1.8v3.6h-1.7v-7.5h1.7v1.6
			l0,0c0.2-0.5,0.4-0.9,0.7-1.2c0.3-0.2,0.7-0.4,1.2-0.4c0.2,0,0.5,0,0.7,0.2L142,41.4"/>
		<path class="st0" d="M147.6,47.2c-0.4,0.2-0.9,0.2-1.3,0.2c-1.5,0-2.2-0.7-2.2-2.1v-4.2h-1.2v-1.3h1.2v-1.7l1.7-0.5v2.2h1.8v1.3
			h-1.8v3.7c0,0.3,0.1,0.7,0.2,1c0.2,0.2,0.5,0.3,0.8,0.2c0.2,0,0.6-0.1,0.7-0.2V47.2"/>
		<path class="st0" d="M155.9,47.3h-1.7V43c0-1.4-0.5-2.1-1.5-2.1c-0.5,0-1,0.2-1.3,0.6c-0.3,0.4-0.5,0.9-0.5,1.5v4.3h-1.7v-7.5h1.7
			V41l0,0c0.5-0.9,1.4-1.5,2.5-1.4c0.7-0.1,1.4,0.2,1.9,0.8c0.5,0.7,0.7,1.5,0.7,2.3L155.9,47.3"/>
		<path class="st0" d="M162.5,42.8c0-0.5-0.2-1-0.4-1.4c-0.3-0.3-0.7-0.5-1.2-0.5c-0.5,0-0.9,0.2-1.2,0.5c-0.3,0.4-0.6,0.9-0.7,1.4
			H162.5 M164.2,43.9H159c0,0.6,0.2,1.2,0.7,1.6c0.5,0.4,1.1,0.6,1.7,0.6c0.8,0,1.6-0.2,2.2-0.7v1.4c-0.8,0.5-1.8,0.7-2.7,0.7
			c-1,0.1-1.9-0.3-2.6-1c-0.7-0.8-1-1.8-1-2.9c-0.1-1.1,0.3-2.1,1.1-2.9c0.7-0.7,1.7-1.2,2.6-1.1c0.9-0.1,1.8,0.3,2.4,1
			c0.6,0.7,0.9,1.7,0.8,2.7V43.9"/>
	</g>
	<path class="st0" d="M170.2,41.4c-0.2-0.2-0.6-0.2-0.9-0.2c-0.5,0-1,0.2-1.2,0.7c-0.3,0.6-0.6,1.2-0.5,1.8v3.6h-1.7v-7.5h1.7v1.6
		l0,0c0.2-0.5,0.4-0.9,0.7-1.2c0.3-0.2,0.7-0.4,1.2-0.4c0.2,0,0.5,0,0.7,0.2L170.2,41.4"/>
	<polyline class="st1" points="8.9,13.6 25.1,13.6 25.1,29.6 8.9,29.6 8.9,13.6 	"/>
	<polyline class="st2" points="26.9,13.6 43.1,13.6 43.1,29.6 26.9,29.6 26.9,13.6 	"/>
	<polyline class="st3" points="8.9,31.3 25.1,31.3 25.1,47.3 8.9,47.3 8.9,31.3 	"/>
	<polyline class="st4" points="26.9,31.3 43.1,31.3 43.1,47.3 26.9,47.3 26.9,31.3 	"/>
</g>
</svg>
